<svg xmlns="http://www.w3.org/2000/svg" width="1024" height="1024" viewBox="0 0 1024 1024">
  <defs>
    <g id="star">
      <polygon points="0,-38 11,-12 40,-12 17,7 26,35 0,17 -26,35 -17,7 -40,-12 -11,-12" 
               fill="#FCD34D"/>
    </g>
  </defs>
  
  <!-- SADECE YILDIZLAR + АП (şeffaf arka plan) -->
  
  <!-- Üst 9 yıldız -->
  <g transform="translate(512, 180)">
    <use href="#star" x="-380" y="40"  transform="scale(0.85)"/>
    <use href="#star" x="-290" y="10"  transform="scale(0.9)"/>
    <use href="#star" x="-190" y="-15" transform="scale(0.95)"/>
    <use href="#star" x="-90"  y="-30" transform="scale(1)"/>
    <use href="#star" x="0"    y="-35" transform="scale(1.05)"/>
    <use href="#star" x="90"   y="-30" transform="scale(1)"/>
    <use href="#star" x="190"  y="-15" transform="scale(0.95)"/>
    <use href="#star" x="290"  y="10"  transform="scale(0.9)"/>
    <use href="#star" x="380"  y="40"  transform="scale(0.85)"/>
  </g>
  
  <!-- 3 yıldız -->
  <g transform="translate(512, 320)">
    <use href="#star" x="-140" y="0"   transform="scale(0.9)"/>
    <use href="#star" x="0"    y="-15" transform="scale(1)"/>
    <use href="#star" x="140"  y="0"   transform="scale(0.9)"/>
  </g>
  
  <!-- АП harfleri -->
  <text x="512" y="740" 
        font-family="Georgia, 'Times New Roman', serif" 
        font-size="480" 
        font-weight="900" 
        fill="#FCD34D" 
        text-anchor="middle" 
        letter-spacing="20"
        stroke="#92400E"
        stroke-width="6"
        paint-order="stroke fill">АП</text>
</svg>